<svg width="77" height="40" viewBox="0 0 77 40" fill="none" xmlns="http://www.w3.org/2000/svg">
<path d="M47.2957 5.34133C45.4541 2.33881 43.4264 0.677414 40.9895 0.19701C39.5199 -0.103241 38.6083 -0.0632095 37.176 0.337128C35.4831 0.817532 34.46 1.53814 32.9346 3.2796C31.0557 5.44141 29.921 7.60323 24.489 19.3931C21.8289 25.178 19.1873 30.6426 18.6292 31.5634C16.5644 34.9062 14.4623 35.3866 12.7694 32.8845C11.6719 31.2631 9.21637 25.6984 7.05847 19.9336C5.42145 15.5499 5.08661 14.2688 5.08661 12.4473C5.08661 10.926 5.12381 10.7659 5.66329 10.0453C6.42599 9.04444 7.56075 8.38388 8.76991 8.24377C9.96047 8.10365 10.779 8.44394 11.8765 9.50483C13.2903 10.886 13.9414 12.127 17.2527 19.6934C19.6524 25.178 19.9686 25.7985 20.2291 25.4783C20.3221 25.3782 21.0104 24.017 21.7545 22.4557L23.1311 19.5933L21.0104 15.1496C18.3688 9.62493 17.5689 8.24377 15.9319 6.54234C12.9927 3.45975 8.99314 2.61905 5.12381 4.28044C4.45412 4.58069 3.44959 5.24125 2.89151 5.74167C-0.419738 8.80424 -0.828991 12.5274 1.36611 19.3931C3.13335 24.8978 6.42599 32.9445 7.78397 35.1264C9.16056 37.3482 10.7232 38.7294 12.6392 39.41C13.6252 39.7703 14.146 39.8303 15.7831 39.7703C17.5503 39.7102 17.8851 39.6301 18.9641 39.0697C20.5267 38.229 22.2567 36.5476 23.2427 34.8461C23.9682 33.6251 27.0562 26.9195 30.107 19.9936C32.7672 13.9686 35.3715 8.54403 36.0784 7.58322C38.1061 4.8209 40.1152 4.50063 42.087 6.64243C43.352 8.00357 44.5612 10.2455 48.0212 17.5716C49.6024 20.8944 50.9604 23.6367 51.0348 23.6367C51.2395 23.6367 53.8996 18.9928 53.9182 18.6125C53.9368 18.012 49.0444 8.22375 47.2957 5.34133Z" fill="#34322D"/>
<path d="M75.8134 7.9235C74.7158 5.92182 72.1301 4.06025 69.8234 3.59986C67.1074 3.05941 64.4658 3.94016 62.2707 6.12199C60.6709 7.72334 59.8152 9.12451 57.6387 13.6883C55.2018 18.8126 53.7322 21.655 52.4486 23.7968C48.5049 30.3824 43.8729 34.0054 39.4083 34.0054C36.19 34.0054 32.3021 31.7035 29.4745 28.1205C28.9722 27.5 28.5072 26.9995 28.4142 26.9995C28.3212 26.9995 27.7073 28.2005 27.0562 29.6417L25.847 32.304L27.3166 33.8453C29.5489 36.2073 32.4137 38.0288 35.3157 38.9296C37.2132 39.51 41.7894 39.47 43.7798 38.8495C48.3561 37.4083 52.7277 33.6051 56.3179 27.9003C58.5689 24.3573 59.4804 22.5758 62.9962 14.7893C63.9078 12.7476 64.9309 10.7259 65.2472 10.3055C66.9586 8.02358 68.9305 7.62325 70.7163 9.20458C72.2789 10.6058 72.5021 12.2872 71.6092 16.0303C70.5675 20.3339 67.6469 28.9812 66.3447 31.6034C65.6936 32.9045 64.6891 34.0855 63.945 34.4057C63.4985 34.6059 63.2939 34.5859 62.6056 34.2256C61.6383 33.7252 60.8012 32.5042 59.2943 29.4616C58.7363 28.3206 58.234 27.4199 58.1596 27.4599C58.1038 27.4799 57.2853 28.6209 56.3551 29.982L54.6809 32.4841L55.2576 33.5851C57.1737 37.2081 58.4572 38.5893 60.8942 39.5301C63.8148 40.671 67.1818 39.6902 69.2653 37.068C70.7907 35.1664 72.4649 31.3031 74.381 25.2781C77.376 15.8502 77.7294 11.4665 75.8134 7.9235Z" fill="#34322D"/>
<path d="M40.7104 23.997C43.166 22.6559 43.1102 18.8927 40.636 17.5916C38.4781 16.4707 35.9482 17.9119 35.725 20.374C35.6133 21.635 35.911 22.5758 36.6923 23.3765C37.8456 24.5775 39.2594 24.7977 40.7104 23.997Z" fill="#34322D"/>
</svg>
