<svg width="32" height="32" viewBox="0 0 32 32" fill="none" xmlns="http://www.w3.org/2000/svg">
<path d="M19.6554 11.1365C18.89 9.93552 18.0473 9.27097 17.0346 9.0788C16.4238 8.9587 16.045 8.97472 15.4497 9.13485C14.7462 9.32701 14.321 9.61525 13.6871 10.3118C12.9063 11.1766 12.4347 12.0413 10.1773 16.7573C9.07174 19.0712 7.97395 21.257 7.74202 21.6253C6.88389 22.9625 6.0103 23.1546 5.30678 22.1538C4.85066 21.5052 3.83018 19.2794 2.93339 16.9734C2.25307 15.22 2.11392 14.7075 2.11392 13.9789C2.11392 13.3704 2.12938 13.3064 2.35357 13.0181C2.67054 12.6178 3.14213 12.3536 3.64464 12.2975C4.13942 12.2415 4.47958 12.3776 4.9357 12.8019C5.52325 13.3544 5.79383 13.8508 7.16993 16.8774C8.16722 19.0712 8.29865 19.3194 8.40688 19.1913C8.44554 19.1513 8.73158 18.6068 9.04082 17.9823L9.6129 16.8373L8.73158 15.0598C7.63379 12.85 7.30136 12.2975 6.62104 11.6169C5.39955 10.3839 3.73741 10.0476 2.12938 10.7122C1.85106 10.8323 1.43359 11.0965 1.20167 11.2967C-0.174436 12.5217 -0.344516 14.0109 0.567733 16.7573C1.30217 18.9591 2.67054 22.1778 3.2349 23.0505C3.80699 23.9393 4.45638 24.4918 5.25267 24.764C5.66241 24.9081 5.87887 24.9321 6.55919 24.9081C7.29363 24.8841 7.43279 24.8521 7.88118 24.6279C8.53058 24.2916 9.24955 23.619 9.65929 22.9384C9.96079 22.45 11.2441 19.7678 12.512 16.9975C13.6175 14.5874 14.6998 12.4176 14.9936 12.0333C15.8363 10.9284 16.6712 10.8003 17.4907 11.657C18.0164 12.2014 18.5189 13.0982 19.9569 16.0286C20.614 17.3578 21.1784 18.4547 21.2093 18.4547C21.2943 18.4547 22.3998 16.5971 22.4076 16.445C22.4153 16.2048 20.3821 12.2895 19.6554 11.1365Z" fill="#34322D"/>
<path d="M31.5069 12.1694C31.0507 11.3687 29.9761 10.6241 29.0175 10.4399C27.8888 10.2238 26.791 10.5761 25.8788 11.4488C25.2139 12.0893 24.8583 12.6498 23.9538 14.4753C22.941 16.5251 22.3303 17.662 21.7968 18.5187C20.1579 21.1529 18.2329 22.6022 16.3775 22.6022C15.04 22.6022 13.4242 21.6814 12.2491 20.2482C12.0404 20 11.8471 19.7998 11.8085 19.7998C11.7698 19.7998 11.5147 20.2802 11.2441 20.8567L10.7416 21.9216L11.3524 22.5381C12.2801 23.4829 13.4706 24.2115 14.6767 24.5718C15.4652 24.804 17.367 24.788 18.1942 24.5398C20.096 23.9633 21.9128 22.442 23.4049 20.1601C24.3403 18.7429 24.7191 18.0303 26.1803 14.9157C26.5591 14.099 26.9843 13.2903 27.1157 13.1222C27.8269 12.2094 28.6464 12.0493 29.3886 12.6818C30.038 13.2423 30.1308 13.9149 29.7597 15.4121C29.3267 17.1336 28.113 20.5925 27.5718 21.6414C27.3012 22.1618 26.8838 22.6342 26.5745 22.7623C26.389 22.8424 26.304 22.8344 26.0179 22.6902C25.6159 22.4901 25.268 22.0017 24.6418 20.7846C24.4099 20.3283 24.2011 19.968 24.1702 19.984C24.147 19.992 23.8069 20.4484 23.4203 20.9928L22.7245 21.9937L22.9642 22.434C23.7605 23.8832 24.2939 24.4357 25.3067 24.812C26.5204 25.2684 27.9197 24.8761 28.7856 23.8272C29.4195 23.0666 30.1153 21.5213 30.9116 19.1112C32.1563 15.3401 32.3031 13.5866 31.5069 12.1694Z" fill="#34322D"/>
<path d="M16.9186 18.5988C17.9391 18.0624 17.9159 16.5571 16.8877 16.0366C15.9909 15.5883 14.9395 16.1648 14.8467 17.1496C14.8003 17.654 14.924 18.0303 15.2487 18.3506C15.7281 18.831 16.3156 18.9191 16.9186 18.5988Z" fill="#34322D"/>
</svg>
